<svg xmlns="http://www.w3.org/2000/svg" viewBox="0 0 24 24" fill="none" stroke="currentColor" stroke-width="1.5" stroke-linecap="round" stroke-linejoin="round" aria-label="Detecção Óptica de Gás">
  <!-- Eye/optical sensor base -->
  <ellipse cx="12" cy="14" rx="8" ry="5"/>
  <circle cx="12" cy="14" r="2.5"/>
  <circle cx="12" cy="14" r="1" fill="currentColor" stroke="none"/>
  <!-- Gas cloud hint above -->
  <path d="M8 9c0-2 1.5-4 4-4s4 2 4 4"/>
  <path d="M6 10c-1.5 0-2.5-1-2.5-2.5S5 5 6.5 5c.3-1.5 1.5-2.5 3-2.5"/>
  <path d="M18 10c1.5 0 2.5-1 2.5-2.5S19 5 17.5 5c-.3-1.5-1.5-2.5-3-2.5"/>
  <!-- Detection beams -->
  <line x1="12" y1="9" x2="12" y2="11.5" stroke-dasharray="1.5 1.5" opacity="0.6"/>
</svg>
